PathFileType	4	(X/Y/Z)	OpenSim_Sub05_CSBaseline_Accel.trc
DataRate	CameraRate	NumFrames	NumMarkers	Units	OrigDataRate	OrigDataStartFrame	OrigNumFrames
100	100	28	8	m	100	1	10557
Frame#	Time	torso_imu_offset_imu	pelvis_imu_offset_imu	tibia_r_imu_offset_imu	femur_r_imu_offset_imu	tibia_l_imu_offset_imu	femur_l_imu_offset_imu	toes_r_imu_offset_imu	toes_l_imu_offset_imu
				X1	Y1	Z1	X2	Y2	Z2	X3	Y3	Z3	X4	Y4	Z4	X5	Y5	Z5	X6	Y6	Z6	X7	Y7	Z7	X8		Y8	Z8	

1	0	9.34657814	1.20178150	4.83551948	9.31059958	-1.30988043	3.42625212	9.71541607	1.60050995	1.25898149	9.69773199	-0.52807784	3.06294728	9.60875298	-1.05766946	1.36133205	9.70890587	0.17744143	1.52938256	5.57136473	-1.49287304	8.14625118	4.97376397	1.65191005	11.06601541
2	0.01000000	9.26667335	1.18586505	4.88059215	9.25230843	-1.30699918	3.45847813	9.72386322	1.29326421	1.25827503	9.68732912	-0.47631830	3.13993901	9.57243463	-1.02850169	1.35898043	9.60985525	0.12770729	1.47937184	5.54162670	-1.57457292	8.15290632	4.94225279	1.69192204	11.08942536
3	0.02000000	9.16926915	1.10624164	4.84504789	9.22587354	-1.28936973	3.47448532	9.66372447	1.16114401	1.36253110	9.70561001	-0.59263915	3.11001690	9.59288532	-0.97284218	1.37846031	9.57084648	0.16938842	1.52423884	5.59298196	-1.60595785	8.26551323	4.94560358	1.64445704	11.11020930
4	0.03000000	9.09900009	1.00158861	4.82012188	9.18103718	-1.25416859	3.47275825	9.63946922	1.20215749	1.41083651	9.73383278	-0.59776716	3.13994852	9.60976199	-1.02038420	1.40541553	9.61295684	0.22239293	1.44984766	5.62255392	-1.46819956	8.17467985	4.93887478	1.64262010	11.14095792
5	0.04000000	9.10289221	0.97133207	4.97272385	9.14624104	-1.27919952	3.59618469	9.71185003	1.22682871	1.41719624	9.75812249	-0.52618286	3.28211146	9.64464270	-1.04534546	1.39651255	9.66179951	0.24856004	1.40868690	5.55237184	-1.41487722	8.16300885	4.93284500	1.64289179	11.10362127
6	0.05000000	9.14965331	1.03145721	5.03987633	9.14150957	-1.27108490	3.57624037	9.66080950	1.24751050	1.47530185	9.75661395	-0.49525244	3.20707276	9.64320014	-0.86894645	1.36664916	9.63102220	0.26302713	1.47577839	5.58502266	-1.48823916	8.26283129	4.88154575	1.65753157	11.06603283
7	0.06000000	9.22282312	1.13528843	5.05268500	9.08995206	-1.26272753	3.60610788	9.58100797	1.19511021	1.54221031	9.66607379	-0.47701322	3.06827825	9.64249248	-0.67536312	1.37741193	9.64648211	0.21623487	1.54475307	5.65562593	-1.39540347	8.15912016	4.77846325	1.75086331	11.07394043
8	0.07000000	9.21927759	1.20096950	4.95539065	9.10248089	-1.29859899	3.62138890	9.71073092	1.15905338	1.49001031	9.62668800	-0.48957181	2.96306284	9.64930371	-0.69900387	1.41055149	9.71810158	0.19478939	1.44534175	5.57264918	-1.24738141	8.15228390	4.75073069	1.72318014	11.09344001
9	0.08000000	9.21503634	1.16838640	4.85285419	9.11439755	-1.29588866	3.57103430	9.83514430	1.40657612	1.36407293	9.74018062	-0.57584208	2.99341218	9.69806266	-0.79604071	1.38689890	9.70115643	0.16663987	1.49339756	5.50467866	-1.37175055	8.18376159	4.73386354	1.72508754	11.14364619
10	0.09000000	9.27573592	1.10259186	4.89149435	9.16079945	-1.29792115	3.59899706	9.88312189	1.48412946	1.32836675	9.73675294	-0.63254997	3.05570650	9.76115827	-0.97084467	1.34883155	9.70551188	0.28362289	1.51865490	5.47360574	-1.48713155	8.19285959	4.75987920	1.70919214	11.15189749
11	0.10000000	9.35334355	1.21113291	4.95904780	9.22410503	-1.26681203	3.56895737	9.89665428	1.36537199	1.27663413	9.76364364	-0.59545585	3.00170209	9.71050939	-1.21628307	1.30573627	9.80425941	0.46593734	1.28469264	5.46810025	-1.50720739	8.21315533	4.83900710	1.69564226	11.12141659
12	0.11000000	9.41833071	1.30298374	4.98517416	9.26589635	-1.24120973	3.58416331	9.81511307	1.34527794	1.20715776	9.89176314	-0.54479143	3.13158089	9.71243732	-1.31624907	1.23654558	9.78611089	0.54236305	1.37967114	5.47841783	-1.50401807	8.23565358	4.81480214	1.70183292	11.14849639
13	0.12000000	9.41633231	1.32241808	5.00479859	9.30174581	-1.21695769	3.58179213	9.74775581	1.44500659	1.24440273	9.89994472	-0.54690612	3.20202068	9.75871839	-1.26459440	1.28021097	9.80680458	0.48588363	1.56263941	5.56994694	-1.49709909	8.29889363	4.81975374	1.69109602	11.20594957
14	0.13000000	9.45350060	1.33718882	4.97800728	9.34298389	-1.24024750	3.56559345	9.73826818	1.59467327	1.29973787	9.80948253	-0.58178624	3.07816261	9.76486026	-1.09984796	1.36283585	9.80971872	0.39670736	1.61433731	5.59603755	-1.43111000	8.20156142	4.80091546	1.66127004	11.19803165
15	0.14000000	9.53489768	1.28109696	4.97578772	9.38626057	-1.20495764	3.55149234	9.81016555	1.68173058	1.34920939	9.80908656	-0.47584555	3.00429518	9.72950303	-0.98031274	1.35993907	9.80609706	0.35373429	1.59442769	5.54002240	-1.41283436	8.25385460	4.70066770	1.66813625	11.15418356
16	0.15000000	9.49812390	1.19136824	4.96440568	9.36659303	-1.24829301	3.47000281	9.78720738	1.80207911	1.32887826	9.78925408	-0.43158702	3.07749296	9.77228859	-1.00505245	1.39373682	9.83819439	0.38903817	1.51619432	5.58084808	-1.41303621	8.21832402	4.61128359	1.74075314	11.15071942
17	0.16000000	9.30935100	1.14720693	5.04792164	9.31027212	-1.22558332	3.55410238	9.74349820	1.79255673	1.40424719	9.80269394	-0.47069307	3.03306357	9.80453902	-1.06625973	1.28147148	9.86784704	0.49793644	1.49337439	5.57150141	-1.34390146	8.17590036	4.65074718	1.76291603	11.17888908
18	0.17000000	9.14768373	1.11907755	5.14027223	9.28741888	-1.17936205	3.59212635	9.72977442	1.77552276	1.39084911	9.83130737	-0.38697697	3.01462767	9.78066783	-1.11618643	1.26841135	9.83884776	0.64372569	1.50544049	5.44094646	-1.30929910	8.20611739	4.68337419	1.74031710	11.14715241
19	0.18000000	9.12420767	1.11490553	5.16309895	9.31499175	-1.19177339	3.60565004	9.79833718	1.75548573	1.31466625	9.91705511	-0.23567019	3.10243510	9.77315561	-1.17210948	1.23871496	9.83673407	0.66290973	1.43806306	5.38722428	-1.35079506	8.29964956	4.65067525	1.68404867	11.14223261
20	0.19000000	9.23820056	1.17046574	5.10166624	9.33788341	-1.20248382	3.57664811	9.83175995	1.72180598	1.40465406	9.97030837	-0.15447929	3.08462828	9.77334884	-1.24232963	1.21307982	9.81080688	0.58884239	1.40600779	5.45024154	-1.29043735	8.25940026	4.63834993	1.70622000	11.20789483
21	0.20000000	9.39891346	1.20892684	4.99026965	9.37298298	-1.28037480	3.53105607	9.78411136	1.91043897	1.43585946	10.00773055	-0.21206599	3.12021894	9.74670728	-1.27691293	1.26378067	9.79068210	0.42431270	1.52050202	5.42109576	-1.22118267	8.20564434	4.70066402	1.74180006	11.16311123
22	0.21000000	9.53256033	1.24978840	4.99898780	9.41437551	-1.27024808	3.62763206	9.66965033	2.15969224	1.39708940	9.92967392	-0.29865054	3.15748405	9.75933962	-1.32662798	1.24779129	9.86012418	0.30031992	1.59739705	5.46334676	-1.22142620	8.30640564	4.72982619	1.69275350	11.16873556
23	0.22000000	9.52733485	1.20395532	4.95513304	9.44764070	-1.27782410	3.52721505	9.73085871	2.12225311	1.39646891	9.85707408	-0.29470293	3.20670057	9.71325946	-1.41353284	1.18207654	9.83221331	0.32262652	1.55995752	5.56888341	-1.21009727	8.32706773	4.71461153	1.74696954	11.19519370
24	0.23000000	9.39370122	1.07970831	4.95821865	9.45263985	-1.27720183	3.52116683	9.79933520	1.88561065	1.44871932	9.78495402	-0.30936926	3.21424733	9.64302766	-1.38002821	1.28350511	9.75456087	0.35341009	1.49010653	5.49281691	-1.26350041	8.25573071	4.77833331	1.70315453	11.13304572
25	0.24000000	9.29672815	1.08333033	5.06664208	9.43442910	-1.26970308	3.56237024	9.77883089	1.74194462	1.28995212	9.74055816	-0.45204699	3.14029587	9.68338879	-1.45142064	1.32391059	9.73758653	0.30183327	1.55054089	5.42301199	-1.39785896	8.17283847	4.82457600	1.59536533	11.12990921
26	0.25000000	9.08253650	0.85935063	5.12689622	9.38330465	-1.26884369	3.61570542	9.77530598	1.56524879	1.16801175	9.76908918	-0.53702314	3.13082558	9.62967740	-1.47755108	1.24317720	9.75872982	0.31982035	1.52447238	5.39523806	-1.49806862	8.22399523	4.78405893	1.62100847	11.21328140
27	0.26000000	9.20712917	1.12298301	5.10879123	9.33124055	-1.25234509	3.61930407	9.79656077	1.50559185	1.23555842	9.77336556	-0.56470435	3.01848389	9.62002117	-1.41393450	1.33608977	9.75315582	0.35579420	1.54195521	5.40092370	-1.44248381	8.19720245	4.78220952	1.64931553	11.15500058
28	0.27000000	9.34292686	1.36871508	5.04343856	9.32463306	-1.27821636	3.66678072	9.75739842	1.62748253	1.23529087	9.77111555	-0.63795071	2.97622288	9.67267565	-1.30146457	1.32590218	9.74522953	0.37852711	1.55794136	5.38545786	-1.39631755	8.18123445	4.70653000	1.64557443	11.16982964
